<?xml version="1.0" encoding="utf-8"?>
<!-- Generator: Adobe Illustrator 16.0.3, SVG Export Plug-In . SVG Version: 6.00 Build 0)  -->
<!DOCTYPE svg PUBLIC "-//W3C//DTD SVG 1.1//EN" "http://www.w3.org/Graphics/SVG/1.1/DTD/svg11.dtd">
<svg version="1.1" id="Capa_2" xmlns="http://www.w3.org/2000/svg" xmlns:xlink="http://www.w3.org/1999/xlink" x="0px" y="0px"
	 width="1920px" height="153px" viewBox="0 0 1920 153" enable-background="new 0 0 1920 153" xml:space="preserve">
<g>
	<path fill="#13137C" d="M63.077,94.938c45.765,11.587,96.166,0.641,130.387-10.584c17.608-5.774,34.764-12.626,51.354-19.252
		c21.477-8.577,43.685-17.446,67.046-24.042c22.801-6.438,80.656-19.248,125.296,0.791c25.68,11.528,43.529,32.795,53.054,63.212
		c0.896,2.861,1.708,5.758,2.488,8.659h0.973c-0.792-2.946-1.614-5.888-2.524-8.795c-9.579-30.588-27.565-51.992-53.461-63.617
		c-45.028-20.213-103.25-7.327-126.193-0.85c-23.422,6.613-45.659,15.494-67.164,24.082c-16.574,6.619-33.712,13.464-51.285,19.227
		C158.993,94.94,108.86,105.84,63.411,94.33c-16.197-4.102-30.968-10.872-45.254-17.421C12.2,74.179,6.173,71.421,0,68.834v0.762
		c5.985,2.52,11.836,5.198,17.621,7.85C31.953,84.017,46.772,90.81,63.077,94.938z"/>
</g>
<g>
	<g>
		<path fill="#13137C" d="M33.966,53.556c20.336,3.014,35.944,9.47,50.702,16.631c14.206,6.894,28.277,14.155,46.771,18.348
			c38.125,8.645,82.918,4.261,120.261-3.15c41.727-8.283,80.926-20.746,126.051-24.381c22.127-1.783,45.803-0.926,65.075,5.063
			c15.968,4.963,24.621,12.823,28.228,21.657c2.049,5.02,2.751,10.118,3.303,15.224h4.829c-0.153-1.447-0.316-2.892-0.523-4.331
			c-1.2-8.358-3.547-17.045-12.613-24.357c-10.297-8.307-28.546-13.581-47.861-15.498c-23.57-2.34-48.014-0.11-70.517,3.515
			c-21.683,3.493-42.212,8.42-62.757,13.214c-39.212,9.15-82.672,18.438-127.278,14.577c-10.434-0.902-20.567-2.563-29.813-5.089
			c-9.125-2.491-17.157-5.765-24.726-9.25c-14.807-6.819-28.213-14.57-45.897-19.731c-18.281-5.336-40.313-7.685-61.527-6.588
			c-0.032,0.002-0.063,0.004-0.095,0.006v2.396C8.412,51.121,21.516,51.711,33.966,53.556z"/>
	</g>
</g>
<g>
	<path fill="#13137C" d="M1851.493,147.252c-4.68,0.363-9.387,0.745-14.112,1.127c-54.266,4.396-110.38,8.943-157.901-10.772
		c-28.36-11.766-50.324-31.151-71.564-49.898c-17.565-15.505-35.729-31.536-57.555-43.39c-43.646-23.705-99.64-29.13-143.547-31.209
		c-11.136-0.527-22.501-0.9-33.493-1.26c-38.442-1.261-78.194-2.565-115.759-10.706c-1.707-0.37-3.376-0.752-5.024-1.143h-3.463
		c2.666,0.667,5.399,1.309,8.22,1.92c37.676,8.165,77.486,9.471,115.985,10.733c10.986,0.36,22.347,0.733,33.475,1.26
		c43.774,2.072,99.594,7.476,143.033,31.069c21.727,11.8,39.849,27.795,57.374,43.265c21.301,18.8,43.325,38.24,71.849,50.074
		c47.794,19.827,104.061,15.269,158.475,10.858c4.725-0.382,9.429-0.763,14.107-1.126c21.469-1.667,45.059-2.761,68.408-1.416v-0.81
		C1896.607,144.486,1872.99,145.582,1851.493,147.252z"/>
</g>
<g>
	<g>
		<circle fill="#13137C" cx="1431.501" cy="32.089" r="2.282"/>
		<circle fill="#13137C" cx="1464.535" cy="32.089" r="2.283"/>
		<circle fill="#13137C" cx="1497.57" cy="32.089" r="2.281"/>
		<circle fill="#13137C" cx="1530.603" cy="32.089" r="2.282"/>
		<circle fill="#13137C" cx="1563.638" cy="32.089" r="2.283"/>
		<circle fill="#13137C" cx="1596.673" cy="32.089" r="2.282"/>
		<circle fill="#13137C" cx="1629.707" cy="32.089" r="2.283"/>
		<circle fill="#13137C" cx="1662.741" cy="32.089" r="2.281"/>
		<circle fill="#13137C" cx="1695.776" cy="32.089" r="2.281"/>
	</g>
	<g>
		<circle fill="#13137C" cx="1431.501" cy="54.294" r="2.282"/>
		<circle fill="#13137C" cx="1464.535" cy="54.294" r="2.283"/>
		<circle fill="#13137C" cx="1497.57" cy="54.294" r="2.281"/>
		<circle fill="#13137C" cx="1530.603" cy="54.294" r="2.282"/>
		<circle fill="#13137C" cx="1563.638" cy="54.294" r="2.283"/>
		<circle fill="#13137C" cx="1596.673" cy="54.294" r="2.282"/>
		<circle fill="#13137C" cx="1629.707" cy="54.294" r="2.283"/>
		<circle fill="#13137C" cx="1662.741" cy="54.294" r="2.281"/>
		<circle fill="#13137C" cx="1695.776" cy="54.294" r="2.281"/>
	</g>
	<g>
		<circle fill="#13137C" cx="1431.501" cy="76.5" r="2.282"/>
		<circle fill="#13137C" cx="1464.535" cy="76.5" r="2.283"/>
		<circle fill="#13137C" cx="1497.57" cy="76.5" r="2.281"/>
		<circle fill="#13137C" cx="1530.603" cy="76.5" r="2.282"/>
		<circle fill="#13137C" cx="1563.638" cy="76.5" r="2.283"/>
		<circle fill="#13137C" cx="1596.673" cy="76.5" r="2.282"/>
		<circle fill="#13137C" cx="1629.707" cy="76.5" r="2.283"/>
		<circle fill="#13137C" cx="1662.741" cy="76.5" r="2.281"/>
		<circle fill="#13137C" cx="1695.776" cy="76.5" r="2.281"/>
	</g>
	<g>
		<circle fill="#13137C" cx="1431.501" cy="98.705" r="2.282"/>
		<circle fill="#13137C" cx="1464.535" cy="98.705" r="2.283"/>
		<circle fill="#13137C" cx="1497.57" cy="98.705" r="2.281"/>
		<circle fill="#13137C" cx="1530.603" cy="98.705" r="2.282"/>
		<circle fill="#13137C" cx="1563.638" cy="98.705" r="2.283"/>
		<circle fill="#13137C" cx="1596.673" cy="98.705" r="2.282"/>
		<circle fill="#13137C" cx="1629.707" cy="98.705" r="2.283"/>
		<circle fill="#13137C" cx="1662.741" cy="98.705" r="2.281"/>
		<circle fill="#13137C" cx="1695.776" cy="98.705" r="2.281"/>
	</g>
	<g>
		<path fill="#13137C" d="M1433.783,120.912c0,1.26-1.022,2.279-2.283,2.279c-1.259,0-2.281-1.02-2.281-2.279
			c0-1.262,1.022-2.285,2.281-2.285C1432.761,118.627,1433.783,119.65,1433.783,120.912z"/>
		<path fill="#13137C" d="M1466.818,120.912c0,1.26-1.021,2.279-2.281,2.279c-1.261,0-2.284-1.02-2.284-2.279
			c0-1.262,1.023-2.285,2.284-2.285C1465.796,118.627,1466.818,119.65,1466.818,120.912z"/>
		<path fill="#13137C" d="M1499.851,120.912c0,1.26-1.021,2.279-2.281,2.279s-2.281-1.02-2.281-2.279
			c0-1.262,1.021-2.285,2.281-2.285S1499.851,119.65,1499.851,120.912z"/>
		<path fill="#13137C" d="M1532.885,120.912c0,1.26-1.021,2.279-2.281,2.279c-1.261,0-2.282-1.02-2.282-2.279
			c0-1.262,1.021-2.285,2.282-2.285C1531.864,118.627,1532.885,119.65,1532.885,120.912z"/>
		<path fill="#13137C" d="M1565.921,120.912c0,1.26-1.023,2.279-2.283,2.279s-2.282-1.02-2.282-2.279
			c0-1.262,1.022-2.285,2.282-2.285S1565.921,119.65,1565.921,120.912z"/>
		<path fill="#13137C" d="M1598.954,120.912c0,1.26-1.021,2.279-2.282,2.279c-1.26,0-2.281-1.02-2.281-2.279
			c0-1.262,1.021-2.285,2.281-2.285C1597.933,118.627,1598.954,119.65,1598.954,120.912z"/>
		<path fill="#13137C" d="M1631.99,120.912c0,1.26-1.022,2.279-2.281,2.279c-1.261,0-2.284-1.02-2.284-2.279
			c0-1.262,1.023-2.285,2.284-2.285C1630.967,118.627,1631.99,119.65,1631.99,120.912z"/>
		<path fill="#13137C" d="M1665.023,120.912c0,1.26-1.021,2.279-2.281,2.279s-2.281-1.02-2.281-2.279
			c0-1.262,1.021-2.285,2.281-2.285S1665.023,119.65,1665.023,120.912z"/>
		<path fill="#13137C" d="M1698.057,120.912c0,1.26-1.021,2.279-2.281,2.279c-1.261,0-2.281-1.02-2.281-2.279
			c0-1.262,1.021-2.285,2.281-2.285C1697.035,118.627,1698.057,119.65,1698.057,120.912z"/>
	</g>
</g>
</svg>
